<?xml version="1.0" encoding="utf-8"?>
<!-- Generator: Adobe Illustrator 19.1.0, SVG Export Plug-In . SVG Version: 6.00 Build 0)  -->
<svg version="1.1" id="Capa_1" xmlns="http://www.w3.org/2000/svg" xmlns:xlink="http://www.w3.org/1999/xlink" x="0px" y="0px" width="50px" height="50px"
	 viewBox="0 0 720 720" style="enable-background:new 0 0 720 720;" xml:space="preserve">
<style type="text/css">
	.st0{fill:#FFFFFF;}
</style>
<g>
	<path class="st0" d="M546.8,350.1l-264-180c-3.7-2.5-8.4-2.8-12.4-0.7c-3.9,2.1-6.4,6.2-6.4,10.6v360c0,4.5,2.5,8.5,6.4,10.6
		c1.8,0.9,3.7,1.4,5.6,1.4c2.4,0,4.7-0.7,6.8-2.1l264-180c3.3-2.2,5.2-5.9,5.2-9.9C552,356,550,352.3,546.8,350.1z M288,517.3V202.7
		L518.7,360L288,517.3z"/>
	<path class="st0" d="M360,0C161.5,0,0,161.5,0,360s161.5,360,360,360s360-161.5,360-360S558.5,0,360,0z M360,696
		C174.7,696,24,545.3,24,360C24,174.7,174.7,24,360,24c185.3,0,336,150.7,336,336C696,545.3,545.3,696,360,696z"/>
</g>
</svg>
