<?xml version="1.0" encoding="utf-8"?>
<!-- Generator: Adobe Illustrator 21.0.0, SVG Export Plug-In . SVG Version: 6.00 Build 0)  -->
<svg version="1.1" id="Layer_1" xmlns="http://www.w3.org/2000/svg" xmlns:xlink="http://www.w3.org/1999/xlink" x="0px" y="0px"
	 viewBox="0 0 40 40" style="enable-background:new 0 0 40 40;" xml:space="preserve">
<style type="text/css">
	.st0{fill:none;stroke:#808184;stroke-width:0.25;stroke-miterlimit:10;}
	.st1{fill:none;stroke:#ED1C24;stroke-width:0.25;stroke-linecap:round;stroke-linejoin:round;stroke-miterlimit:10;}
</style>
<g>
	<polygon class="st0" points="27.6,26.4 27.6,14.9 13.7,14.9 13.7,26.4 23.2,26.4 	"/>
	<line class="st0" x1="13.7" y1="16.6" x2="27.6" y2="16.6"/>
	<g>
		<polyline class="st1" points="15.2,20.2 15.2,18.5 19.6,18.5 19.6,20.2 		"/>
		<line class="st1" x1="15.2" y1="21.7" x2="19.6" y2="21.7"/>
		<line class="st1" x1="15.2" y1="22.9" x2="19.6" y2="22.9"/>
		<line class="st1" x1="15.2" y1="24" x2="19.6" y2="24"/>
		<polyline class="st1" points="21.6,20.2 21.6,18.5 26.1,18.5 26.1,20.2 		"/>
		<line class="st1" x1="21.6" y1="21.7" x2="26.1" y2="21.7"/>
		<line class="st1" x1="21.6" y1="22.9" x2="26.1" y2="22.9"/>
		<line class="st1" x1="21.6" y1="24" x2="26.1" y2="24"/>
	</g>
	<polyline class="st0" points="13.7,25.1 12.4,25.1 12.4,13.6 24.6,13.6 24.6,14.9 	"/>
</g>
</svg>
