<?xml version="1.0" encoding="utf-8"?>
<!-- Generator: Adobe Illustrator 21.0.0, SVG Export Plug-In . SVG Version: 6.00 Build 0)  -->
<svg version="1.1" id="Layer_1" xmlns="http://www.w3.org/2000/svg" xmlns:xlink="http://www.w3.org/1999/xlink" x="0px" y="0px"
	 viewBox="0 0 40 40" style="enable-background:new 0 0 40 40;" xml:space="preserve">
<style type="text/css">
	.st0{fill:#FFFFFF;stroke:#ED1C24;stroke-width:0.25;stroke-linecap:round;stroke-linejoin:round;stroke-miterlimit:10;}
	.st1{fill:none;stroke:#808184;stroke-width:0.25;stroke-linecap:round;stroke-linejoin:round;stroke-miterlimit:10;}
</style>
<g>
	<circle class="st0" cx="20" cy="20" r="4.5"/>
	<path class="st1" d="M20.5,11.6h-1.1c-0.5,0-0.8,0.4-0.8,0.8l0,0c0,0.4-0.2,0.7-0.6,0.8c-0.5,0.1-0.9,0.3-1.4,0.6
		c-0.3,0.2-0.7,0.1-1-0.1l0,0c-0.3-0.3-0.9-0.3-1.2,0l-0.7,0.7c-0.3,0.3-0.3,0.9,0,1.2l0,0c0.3,0.3,0.3,0.7,0.1,1
		c-0.2,0.4-0.4,0.9-0.6,1.4c-0.1,0.4-0.4,0.6-0.8,0.6l0,0c-0.5,0-0.8,0.4-0.8,0.8v1.1c0,0.5,0.4,0.8,0.8,0.8l0,0
		c0.4,0,0.7,0.2,0.8,0.6c0.1,0.5,0.3,0.9,0.6,1.4c0.2,0.3,0.1,0.7-0.1,1l0,0c-0.3,0.3-0.3,0.9,0,1.2l0.7,0.7c0.3,0.3,0.9,0.3,1.2,0
		l0,0c0.3-0.3,0.7-0.3,1-0.1c0.4,0.2,0.9,0.4,1.4,0.6c0.4,0.1,0.6,0.4,0.6,0.8l0,0c0,0.5,0.4,0.8,0.8,0.8h1.1c0.5,0,0.8-0.4,0.8-0.8
		l0,0c0-0.4,0.2-0.7,0.6-0.8c0.5-0.1,0.9-0.3,1.4-0.6c0.3-0.2,0.7-0.1,1,0.1l0,0c0.3,0.3,0.9,0.3,1.2,0l0.7-0.7
		c0.3-0.3,0.3-0.9,0-1.2l0,0c-0.3-0.3-0.3-0.7-0.1-1c0.2-0.4,0.4-0.9,0.6-1.4c0.1-0.4,0.4-0.6,0.8-0.6l0,0c0.5,0,0.8-0.4,0.8-0.8
		v-1.1c0-0.5-0.4-0.8-0.8-0.8l0,0c-0.4,0-0.7-0.2-0.8-0.6c-0.1-0.5-0.3-0.9-0.6-1.4c-0.2-0.3-0.1-0.7,0.1-1l0,0
		c0.3-0.3,0.3-0.9,0-1.2l-0.7-0.7c-0.3-0.3-0.9-0.3-1.2,0l0,0c-0.3,0.3-0.7,0.3-1,0.1c-0.4-0.2-0.9-0.4-1.4-0.6
		c-0.4-0.1-0.6-0.4-0.6-0.8l0,0C21.4,12,21,11.6,20.5,11.6z"/>
</g>
</svg>
