<?xml version="1.0" encoding="utf-8"?>
<!-- Generator: Adobe Illustrator 21.0.0, SVG Export Plug-In . SVG Version: 6.00 Build 0)  -->
<svg version="1.1" id="Layer_1" xmlns="http://www.w3.org/2000/svg" xmlns:xlink="http://www.w3.org/1999/xlink" x="0px" y="0px"
	 viewBox="0 0 40 40" style="enable-background:new 0 0 40 40;" xml:space="preserve">
<style type="text/css">
	.st0{fill:none;stroke:#808184;stroke-width:0.25;stroke-linecap:round;stroke-linejoin:round;stroke-miterlimit:10;}
	.st1{fill:#FFFFFF;stroke:#ED1C24;stroke-width:0.25;stroke-linecap:round;stroke-linejoin:round;stroke-miterlimit:10;}
</style>
<g>
	<polyline class="st0" points="21.7,12.6 25.8,12.6 25.8,28.5 14.2,28.5 14.2,12.6 18,12.6 	"/>
	<g>
		<line class="st0" x1="16" y1="15.9" x2="23.7" y2="15.9"/>
		<line class="st0" x1="16" y1="17.3" x2="23.7" y2="17.3"/>
	</g>
	<g>
		<line class="st0" x1="16" y1="18.6" x2="23.7" y2="18.6"/>
		<line class="st0" x1="16" y1="20" x2="23.7" y2="20"/>
	</g>
	<g>
		<line class="st0" x1="16" y1="21.3" x2="23.7" y2="21.3"/>
		<line class="st0" x1="16" y1="22.7" x2="23.7" y2="22.7"/>
	</g>
	<g>
		<line class="st0" x1="16" y1="24" x2="23.7" y2="24"/>
		<line class="st0" x1="16" y1="25.4" x2="23.7" y2="25.4"/>
	</g>
	<path class="st1" d="M18,11.8v1.9c0,0.2,0.1,0.3,0.3,0.3h0.1c0.2,0,0.3-0.1,0.3-0.3l0,0c0.1-0.6,0.6-1,1.1-1l0,0
		c0.6,0,1.1,0.4,1.1,1l0,0c0,0.2,0.2,0.3,0.3,0.3l0,0c0.2,0,0.3-0.1,0.3-0.3v-1.9c0-0.1-0.1-0.3-0.3-0.3H18
		C18.1,11.5,18,11.7,18,11.8z"/>
</g>
</svg>
