<?xml version="1.0" encoding="utf-8"?>
<!-- Generator: Adobe Illustrator 21.0.0, SVG Export Plug-In . SVG Version: 6.00 Build 0)  -->
<svg version="1.1" id="Layer_1" xmlns="http://www.w3.org/2000/svg" xmlns:xlink="http://www.w3.org/1999/xlink" x="0px" y="0px"
	 viewBox="0 0 40 40" style="enable-background:new 0 0 40 40;" xml:space="preserve">
<style type="text/css">
	.st0{fill:none;stroke:#808184;stroke-width:0.25;stroke-linecap:round;stroke-linejoin:round;stroke-miterlimit:10;}
	.st1{fill:none;stroke:#ED1C24;stroke-width:0.25;stroke-linecap:round;stroke-linejoin:round;stroke-miterlimit:10;}
</style>
<g>
	<g>
		<line class="st0" x1="10.3" y1="21.2" x2="15.3" y2="21.2"/>
		<line class="st0" x1="12.8" y1="19.6" x2="16.6" y2="19.6"/>
		<line class="st0" x1="10.3" y1="18.1" x2="15.3" y2="18.1"/>
	</g>
	<path class="st0" d="M11.9,17.1c1.1-3.2,4.2-5.6,7.8-5.6c4.5,0,8.2,3.7,8.2,8.2s-3.7,8.2-8.2,8.2c-3.6,0-6.7-2.3-7.8-5.6"/>
	<path class="st0" d="M13.4,16.7c1.1-2.4,3.5-4,6.3-4c3.8,0,7,3.1,7,7s-3.1,7-7,7c-2.8,0-5.2-1.7-6.3-4"/>
	<circle class="st1" cx="19.7" cy="19.7" r="0.9"/>
	<line class="st1" x1="20.3" y1="19.1" x2="22.9" y2="16.5"/>
	<line class="st0" x1="25.5" y1="13.9" x2="26" y2="13.3"/>
	<rect x="19.4" y="10.5" class="st0" width="0.6" height="1"/>
	<rect x="19" y="10" class="st0" width="1.5" height="0.5"/>
	<circle class="st0" cx="26.3" cy="13" r="0.4"/>
</g>
</svg>
